<svg version="1.0" preserveAspectRatio="xMidYMid meet" viewBox="86.25 185.249995554 228 63.74999847000001" zoomAndPan="magnify" xmlns:xlink="http://www.w3.org/1999/xlink" xmlns="http://www.w3.org/2000/svg" style="max-height: 500px" width="228" height="63.74999847000001"><defs><g/><clipPath id="dfa4ad2f88"><path clip-rule="nonzero" d="M 90.949219 208 L 97 208 L 97 224 L 90.949219 224 Z M 90.949219 208"/></clipPath><clipPath id="bd7ea8940f"><path clip-rule="nonzero" d="M 106 189 L 111.199219 189 L 111.199219 224 L 106 224 Z M 106 189"/></clipPath><clipPath id="96550799fd"><path clip-rule="nonzero" d="M 98 237 L 105 237 L 105 243.75 L 98 243.75 Z M 98 237"/></clipPath></defs><g clip-path="url(#dfa4ad2f88)"><path fill-rule="evenodd" fill-opacity="1" d="M 96.039062 208.40625 L 96.039062 221.910156 C 96.039062 222.871094 94.894531 223.65625 93.5 223.65625 C 92.105469 223.65625 90.960938 222.871094 90.960938 221.910156 L 90.960938 208.40625" fill="#db4cb1"/></g><path fill-rule="evenodd" fill-opacity="1" d="M 103.777344 199.550781 L 103.777344 221.910156 C 103.777344 222.871094 102.632812 223.65625 101.238281 223.65625 C 99.839844 223.65625 98.699219 222.871094 98.699219 221.910156 L 98.699219 199.550781" fill="#9859f6"/><g clip-path="url(#bd7ea8940f)"><path fill-rule="evenodd" fill-opacity="1" d="M 111.511719 189 L 111.511719 221.910156 C 111.511719 222.871094 110.371094 223.65625 108.972656 223.65625 C 107.582031 223.65625 106.4375 222.871094 106.4375 221.910156 L 106.4375 189" fill="#6566f2"/></g><g clip-path="url(#96550799fd)"><path fill-rule="evenodd" fill-opacity="1" d="M 104.023438 238.292969 L 101.46875 243.402344 C 101.3125 243.714844 101.078125 243.652344 100.964844 243.421875 L 98.410156 238.316406 C 98.304688 238.105469 98.355469 237.863281 98.644531 237.769531 C 99.433594 237.507812 100.289062 237.367188 101.1875 237.363281 L 101.222656 237.363281 C 102.125 237.363281 102.988281 237.507812 103.78125 237.769531 C 104.191406 237.902344 104.152344 238.027344 104.023438 238.292969" fill="#db4cb1"/></g><path fill-rule="evenodd" fill-opacity="1" d="M 109.898438 226.613281 L 105.566406 235.269531 C 105.410156 235.578125 105.265625 235.574219 104.90625 235.441406 C 103.78125 235.03125 102.539062 234.800781 101.246094 234.800781 L 101.207031 234.800781 C 99.917969 234.800781 98.675781 235.03125 97.550781 235.445312 C 97.179688 235.574219 97.050781 235.558594 96.859375 235.183594 L 92.5625 226.601562 C 92.464844 226.402344 92.484375 226.234375 92.789062 226.265625 C 94.179688 226.425781 95.691406 226.117188 96.84375 225.375 C 97.28125 225.074219 97.441406 225.085938 97.882812 225.363281 C 98.78125 225.941406 99.964844 226.304688 101.226562 226.308594 L 101.261719 226.308594 C 102.511719 226.300781 103.6875 225.941406 104.578125 225.375 C 104.921875 225.144531 105.273438 225.144531 105.625 225.363281 C 106.730469 226.085938 108.1875 226.40625 109.535156 226.285156 C 109.925781 226.246094 110.058594 226.292969 109.898438 226.613281" fill="#0d3f63"/><g fill-opacity="1" fill="#0d3f63"><g transform="translate(116.659164, 216.504185)"><g><path d="M 11.328125 -22.71875 C 12.859375 -22.71875 14.222656 -22.375 15.421875 -21.6875 C 16.628906 -21.007812 17.585938 -20.082031 18.296875 -18.90625 C 19.015625 -17.726562 19.375 -16.390625 19.375 -14.890625 C 19.375 -13.398438 19.019531 -12.066406 18.3125 -10.890625 C 17.613281 -9.710938 16.65625 -8.785156 15.4375 -8.109375 C 14.226562 -7.441406 12.859375 -7.109375 11.328125 -7.109375 L 7.53125 -7.109375 L 7.53125 0 L 2.59375 0 L 2.59375 -22.71875 Z M 11.125 -11.65625 C 12.101562 -11.65625 12.890625 -11.960938 13.484375 -12.578125 C 14.078125 -13.191406 14.375 -13.960938 14.375 -14.890625 C 14.375 -15.847656 14.078125 -16.632812 13.484375 -17.25 C 12.890625 -17.863281 12.101562 -18.171875 11.125 -18.171875 L 7.53125 -18.171875 L 7.53125 -11.65625 Z M 11.125 -11.65625"/></g></g></g><g fill-opacity="1" fill="#0d3f63"><g transform="translate(136.842558, 216.504185)"><g><path d="M 17.6875 0 L 16.09375 -4.3125 L 7.046875 -4.3125 L 5.484375 0 L 0.296875 0 L 9.1875 -22.71875 L 13.828125 -22.71875 L 23.015625 0 Z M 11.546875 -16.71875 L 8.59375 -8.59375 L 14.53125 -8.59375 Z M 11.546875 -16.71875"/></g></g></g><g fill-opacity="1" fill="#0d3f63"><g transform="translate(160.141068, 216.504185)"><g><path d="M 10.125 0.453125 C 8.394531 0.453125 6.867188 0.140625 5.546875 -0.484375 C 4.222656 -1.109375 3.1875 -2.003906 2.4375 -3.171875 C 1.695312 -4.347656 1.328125 -5.742188 1.328125 -7.359375 L 6.296875 -7.359375 C 6.296875 -6.265625 6.675781 -5.453125 7.4375 -4.921875 C 8.207031 -4.390625 9.09375 -4.125 10.09375 -4.125 C 10.71875 -4.125 11.304688 -4.222656 11.859375 -4.421875 C 12.410156 -4.628906 12.863281 -4.929688 13.21875 -5.328125 C 13.582031 -5.734375 13.765625 -6.21875 13.765625 -6.78125 C 13.765625 -7.363281 13.554688 -7.820312 13.140625 -8.15625 C 12.734375 -8.5 12.179688 -8.773438 11.484375 -8.984375 C 10.796875 -9.203125 10.039062 -9.410156 9.21875 -9.609375 C 8.375 -9.796875 7.507812 -10.03125 6.625 -10.3125 C 5.738281 -10.59375 4.914062 -10.96875 4.15625 -11.4375 C 3.394531 -11.90625 2.785156 -12.53125 2.328125 -13.3125 C 1.878906 -14.101562 1.65625 -15.109375 1.65625 -16.328125 C 1.65625 -18.515625 2.394531 -20.195312 3.875 -21.375 C 5.351562 -22.550781 7.359375 -23.140625 9.890625 -23.140625 C 12.492188 -23.140625 14.507812 -22.484375 15.9375 -21.171875 C 17.363281 -19.867188 18.078125 -18.09375 18.078125 -15.84375 L 13.203125 -15.84375 C 13.203125 -16.8125 12.851562 -17.523438 12.15625 -17.984375 C 11.46875 -18.453125 10.671875 -18.6875 9.765625 -18.6875 C 8.960938 -18.6875 8.226562 -18.515625 7.5625 -18.171875 C 6.894531 -17.828125 6.5625 -17.285156 6.5625 -16.546875 C 6.5625 -16.003906 6.757812 -15.578125 7.15625 -15.265625 C 7.550781 -14.953125 8.078125 -14.691406 8.734375 -14.484375 C 9.398438 -14.285156 10.132812 -14.085938 10.9375 -13.890625 C 11.800781 -13.671875 12.6875 -13.414062 13.59375 -13.125 C 14.5 -12.832031 15.34375 -12.4375 16.125 -11.9375 C 16.90625 -11.445312 17.539062 -10.789062 18.03125 -9.96875 C 18.519531 -9.144531 18.765625 -8.101562 18.765625 -6.84375 C 18.765625 -5.195312 18.367188 -3.832031 17.578125 -2.75 C 16.785156 -1.675781 15.738281 -0.875 14.4375 -0.34375 C 13.144531 0.1875 11.707031 0.453125 10.125 0.453125 Z M 10.125 0.453125"/></g></g></g><g fill-opacity="1" fill="#0d3f63"><g transform="translate(180.227107, 216.504185)"><g><path d="M 10.125 0.453125 C 8.394531 0.453125 6.867188 0.140625 5.546875 -0.484375 C 4.222656 -1.109375 3.1875 -2.003906 2.4375 -3.171875 C 1.695312 -4.347656 1.328125 -5.742188 1.328125 -7.359375 L 6.296875 -7.359375 C 6.296875 -6.265625 6.675781 -5.453125 7.4375 -4.921875 C 8.207031 -4.390625 9.09375 -4.125 10.09375 -4.125 C 10.71875 -4.125 11.304688 -4.222656 11.859375 -4.421875 C 12.410156 -4.628906 12.863281 -4.929688 13.21875 -5.328125 C 13.582031 -5.734375 13.765625 -6.21875 13.765625 -6.78125 C 13.765625 -7.363281 13.554688 -7.820312 13.140625 -8.15625 C 12.734375 -8.5 12.179688 -8.773438 11.484375 -8.984375 C 10.796875 -9.203125 10.039062 -9.410156 9.21875 -9.609375 C 8.375 -9.796875 7.507812 -10.03125 6.625 -10.3125 C 5.738281 -10.59375 4.914062 -10.96875 4.15625 -11.4375 C 3.394531 -11.90625 2.785156 -12.53125 2.328125 -13.3125 C 1.878906 -14.101562 1.65625 -15.109375 1.65625 -16.328125 C 1.65625 -18.515625 2.394531 -20.195312 3.875 -21.375 C 5.351562 -22.550781 7.359375 -23.140625 9.890625 -23.140625 C 12.492188 -23.140625 14.507812 -22.484375 15.9375 -21.171875 C 17.363281 -19.867188 18.078125 -18.09375 18.078125 -15.84375 L 13.203125 -15.84375 C 13.203125 -16.8125 12.851562 -17.523438 12.15625 -17.984375 C 11.46875 -18.453125 10.671875 -18.6875 9.765625 -18.6875 C 8.960938 -18.6875 8.226562 -18.515625 7.5625 -18.171875 C 6.894531 -17.828125 6.5625 -17.285156 6.5625 -16.546875 C 6.5625 -16.003906 6.757812 -15.578125 7.15625 -15.265625 C 7.550781 -14.953125 8.078125 -14.691406 8.734375 -14.484375 C 9.398438 -14.285156 10.132812 -14.085938 10.9375 -13.890625 C 11.800781 -13.671875 12.6875 -13.414062 13.59375 -13.125 C 14.5 -12.832031 15.34375 -12.4375 16.125 -11.9375 C 16.90625 -11.445312 17.539062 -10.789062 18.03125 -9.96875 C 18.519531 -9.144531 18.765625 -8.101562 18.765625 -6.84375 C 18.765625 -5.195312 18.367188 -3.832031 17.578125 -2.75 C 16.785156 -1.675781 15.738281 -0.875 14.4375 -0.34375 C 13.144531 0.1875 11.707031 0.453125 10.125 0.453125 Z M 10.125 0.453125"/></g></g></g><g fill-opacity="1" fill="#0d3f63"><g transform="translate(200.313146, 216.504185)"><g><path d="M 26.359375 2.4375 L 21.359375 2.4375 L 18.6875 -0.609375 C 17.894531 -0.265625 17.050781 0 16.15625 0.1875 C 15.269531 0.382812 14.34375 0.484375 13.375 0.484375 C 11.644531 0.484375 10.039062 0.1875 8.5625 -0.40625 C 7.09375 -1 5.8125 -1.832031 4.71875 -2.90625 C 3.625 -3.976562 2.773438 -5.234375 2.171875 -6.671875 C 1.566406 -8.109375 1.265625 -9.671875 1.265625 -11.359375 C 1.265625 -13.046875 1.566406 -14.609375 2.171875 -16.046875 C 2.773438 -17.484375 3.625 -18.738281 4.71875 -19.8125 C 5.8125 -20.882812 7.09375 -21.71875 8.5625 -22.3125 C 10.039062 -22.90625 11.644531 -23.203125 13.375 -23.203125 C 15.101562 -23.203125 16.703125 -22.90625 18.171875 -22.3125 C 19.640625 -21.71875 20.914062 -20.882812 22 -19.8125 C 23.082031 -18.738281 23.925781 -17.484375 24.53125 -16.046875 C 25.132812 -14.609375 25.4375 -13.046875 25.4375 -11.359375 C 25.4375 -9.628906 25.117188 -8.023438 24.484375 -6.546875 C 23.847656 -5.078125 22.976562 -3.816406 21.875 -2.765625 Z M 13.375 -4.15625 C 14.082031 -4.15625 14.765625 -4.238281 15.421875 -4.40625 L 10.90625 -9.640625 L 15.90625 -9.640625 L 18.65625 -6.453125 C 19.21875 -7.085938 19.660156 -7.816406 19.984375 -8.640625 C 20.316406 -9.472656 20.484375 -10.378906 20.484375 -11.359375 C 20.484375 -12.722656 20.171875 -13.953125 19.546875 -15.046875 C 18.929688 -16.140625 18.085938 -17 17.015625 -17.625 C 15.953125 -18.25 14.738281 -18.5625 13.375 -18.5625 C 12.03125 -18.5625 10.816406 -18.25 9.734375 -17.625 C 8.648438 -17 7.796875 -16.140625 7.171875 -15.046875 C 6.546875 -13.953125 6.234375 -12.722656 6.234375 -11.359375 C 6.234375 -9.992188 6.546875 -8.765625 7.171875 -7.671875 C 7.796875 -6.578125 8.648438 -5.71875 9.734375 -5.09375 C 10.816406 -4.46875 12.03125 -4.15625 13.375 -4.15625 Z M 13.375 -4.15625"/></g></g></g><g fill-opacity="1" fill="#0d3f63"><g transform="translate(227.083724, 216.504185)"><g><path d="M 11.75 0.484375 C 9.945312 0.484375 8.34375 0.101562 6.9375 -0.65625 C 5.53125 -1.425781 4.414062 -2.488281 3.59375 -3.84375 C 2.78125 -5.195312 2.375 -6.757812 2.375 -8.53125 L 2.375 -22.71875 L 7.296875 -22.71875 L 7.296875 -8.765625 C 7.296875 -7.359375 7.710938 -6.238281 8.546875 -5.40625 C 9.378906 -4.570312 10.445312 -4.15625 11.75 -4.15625 C 13.070312 -4.15625 14.144531 -4.570312 14.96875 -5.40625 C 15.800781 -6.238281 16.21875 -7.359375 16.21875 -8.765625 L 16.21875 -22.71875 L 21.125 -22.71875 L 21.125 -8.53125 C 21.125 -6.757812 20.71875 -5.195312 19.90625 -3.84375 C 19.09375 -2.488281 17.976562 -1.425781 16.5625 -0.65625 C 15.144531 0.101562 13.539062 0.484375 11.75 0.484375 Z M 11.75 0.484375"/></g></g></g><g fill-opacity="1" fill="#0d3f63"><g transform="translate(250.576933, 216.504185)"><g><path d="M 7.53125 -4.578125 L 16.578125 -4.578125 L 16.578125 0 L 2.59375 0 L 2.59375 -22.71875 L 16.21875 -22.71875 L 16.21875 -18.171875 L 7.53125 -18.171875 L 7.53125 -13.6875 L 15.375 -13.6875 L 15.375 -9.25 L 7.53125 -9.25 Z M 7.53125 -4.578125"/></g></g></g><g fill-opacity="1" fill="#0d3f63"><g transform="translate(268.716023, 216.504185)"><g><path d="M 7.53125 -4.578125 L 16.578125 -4.578125 L 16.578125 0 L 2.59375 0 L 2.59375 -22.71875 L 16.21875 -22.71875 L 16.21875 -18.171875 L 7.53125 -18.171875 L 7.53125 -13.6875 L 15.375 -13.6875 L 15.375 -9.25 L 7.53125 -9.25 Z M 7.53125 -4.578125"/></g></g></g><g fill-opacity="1" fill="#0d3f63"><g transform="translate(286.855113, 216.504185)"><g><path d="M 17 -22.71875 L 21.8125 -22.71875 L 21.8125 0 L 17.71875 0 L 7.4375 -14.1875 L 7.4375 0 L 2.59375 0 L 2.59375 -22.71875 L 7.046875 -22.71875 L 17 -8.859375 Z M 17 -22.71875"/></g></g></g><g fill-opacity="1" fill="#6566f2"><g transform="translate(127.518123, 237.121684)"><g><path d="M 2.46875 -1.140625 L 6.796875 -1.140625 L 6.796875 0 L 1.296875 0 L 1.296875 -9.453125 L 6.640625 -9.453125 L 6.640625 -8.328125 L 2.46875 -8.328125 L 2.46875 -5.40625 L 6.296875 -5.40625 L 6.296875 -4.3125 L 2.46875 -4.3125 Z M 2.46875 -1.140625"/></g></g></g><g fill-opacity="1" fill="#6566f2"><g transform="translate(141.423716, 237.121684)"><g><path d="M 8 0 L 6.671875 0 L 4.046875 -4 L 1.453125 0 L 0.125 0 L 3.328125 -4.953125 L 0.359375 -9.453125 L 1.703125 -9.453125 L 4.0625 -5.84375 L 6.40625 -9.453125 L 7.734375 -9.453125 L 4.796875 -4.90625 Z M 8 0"/></g></g></g><g fill-opacity="1" fill="#6566f2"><g transform="translate(155.963805, 237.121684)"><g><path d="M 7.890625 0 L 6.953125 -2.265625 L 2.421875 -2.265625 L 1.484375 0 L 0.234375 0 L 4.09375 -9.453125 L 5.203125 -9.453125 L 9.1875 0 Z M 4.671875 -7.8125 L 2.859375 -3.34375 L 6.5 -3.34375 Z M 4.671875 -7.8125"/></g></g></g><g fill-opacity="1" fill="#6566f2"><g transform="translate(171.813393, 237.121684)"><g><path d="M 12.3125 0 L 11.109375 0 L 9.875 -7.390625 L 6.609375 -0.25 L 6.296875 -0.25 L 3.03125 -7.375 L 1.8125 0 L 0.59375 0 L 2.1875 -9.453125 L 3.328125 -9.453125 L 6.453125 -2.515625 L 9.578125 -9.453125 L 10.75 -9.453125 Z M 12.3125 0"/></g></g></g><g fill-opacity="1" fill="#6566f2"><g transform="translate(191.172956, 237.121684)"><g><path d="M 7.21875 -9.453125 L 7.21875 -8.34375 L 4.34375 -8.34375 L 4.34375 0 L 3.15625 0 L 3.15625 -8.34375 L 0.28125 -8.34375 L 0.28125 -9.453125 Z M 7.21875 -9.453125"/></g></g></g><g fill-opacity="1" fill="#6566f2"><g transform="translate(205.119051, 237.121684)"><g><path d="M 6.796875 0 L 4.625 -3.703125 L 2.46875 -3.703125 L 2.46875 0 L 1.296875 0 L 1.296875 -9.453125 L 4.875 -9.453125 C 5.46875 -9.453125 5.992188 -9.328125 6.453125 -9.078125 C 6.921875 -8.828125 7.285156 -8.484375 7.546875 -8.046875 C 7.816406 -7.609375 7.953125 -7.113281 7.953125 -6.5625 C 7.953125 -5.894531 7.757812 -5.316406 7.375 -4.828125 C 6.988281 -4.347656 6.488281 -4.015625 5.875 -3.828125 L 8.125 0 Z M 2.46875 -8.328125 L 2.46875 -4.8125 L 4.8125 -4.8125 C 5.394531 -4.8125 5.863281 -4.976562 6.21875 -5.3125 C 6.570312 -5.644531 6.75 -6.066406 6.75 -6.578125 C 6.75 -7.078125 6.570312 -7.492188 6.21875 -7.828125 C 5.863281 -8.160156 5.394531 -8.328125 4.8125 -8.328125 Z M 2.46875 -8.328125"/></g></g></g><g fill-opacity="1" fill="#6566f2"><g transform="translate(220.253147, 237.121684)"><g><path d="M 7.890625 0 L 6.953125 -2.265625 L 2.421875 -2.265625 L 1.484375 0 L 0.234375 0 L 4.09375 -9.453125 L 5.203125 -9.453125 L 9.1875 0 Z M 4.671875 -7.8125 L 2.859375 -3.34375 L 6.5 -3.34375 Z M 4.671875 -7.8125"/></g></g></g><g fill-opacity="1" fill="#6566f2"><g transform="translate(236.102738, 237.121684)"><g><path d="M 1.296875 0 L 1.296875 -9.453125 L 2.46875 -9.453125 L 2.46875 0 Z M 1.296875 0"/></g></g></g><g fill-opacity="1" fill="#6566f2"><g transform="translate(246.309357, 237.121684)"><g><path d="M 7.671875 -9.453125 L 8.828125 -9.453125 L 8.828125 0 L 7.828125 0 L 2.4375 -7.375 L 2.4375 0 L 1.296875 0 L 1.296875 -9.453125 L 2.359375 -9.453125 L 7.671875 -2.15625 Z M 7.671875 -9.453125"/></g></g></g><g fill-opacity="1" fill="#6566f2"><g transform="translate(262.860934, 237.121684)"><g><path d="M 1.296875 0 L 1.296875 -9.453125 L 2.46875 -9.453125 L 2.46875 0 Z M 1.296875 0"/></g></g></g><g fill-opacity="1" fill="#6566f2"><g transform="translate(273.067552, 237.121684)"><g><path d="M 7.671875 -9.453125 L 8.828125 -9.453125 L 8.828125 0 L 7.828125 0 L 2.4375 -7.375 L 2.4375 0 L 1.296875 0 L 1.296875 -9.453125 L 2.359375 -9.453125 L 7.671875 -2.15625 Z M 7.671875 -9.453125"/></g></g></g><g fill-opacity="1" fill="#6566f2"><g transform="translate(289.61913, 237.121684)"><g><path d="M 5.109375 -4.6875 L 10.171875 -4.6875 C 10.148438 -3.738281 9.9375 -2.898438 9.53125 -2.171875 C 9.125 -1.441406 8.566406 -0.867188 7.859375 -0.453125 C 7.148438 -0.046875 6.34375 0.15625 5.4375 0.15625 C 4.75 0.15625 4.109375 0.0351562 3.515625 -0.203125 C 2.929688 -0.441406 2.425781 -0.78125 2 -1.21875 C 1.570312 -1.664062 1.238281 -2.1875 1 -2.78125 C 0.757812 -3.375 0.640625 -4.019531 0.640625 -4.71875 C 0.640625 -5.425781 0.757812 -6.078125 1 -6.671875 C 1.238281 -7.265625 1.570312 -7.78125 2 -8.21875 C 2.425781 -8.65625 2.929688 -8.992188 3.515625 -9.234375 C 4.097656 -9.472656 4.726562 -9.59375 5.40625 -9.59375 C 6.175781 -9.59375 6.878906 -9.441406 7.515625 -9.140625 C 8.160156 -8.847656 8.703125 -8.441406 9.140625 -7.921875 C 9.585938 -7.410156 9.878906 -6.820312 10.015625 -6.15625 L 8.796875 -6.15625 C 8.660156 -6.601562 8.425781 -7 8.09375 -7.34375 C 7.769531 -7.6875 7.378906 -7.953125 6.921875 -8.140625 C 6.472656 -8.335938 5.976562 -8.4375 5.4375 -8.4375 C 4.75 -8.4375 4.132812 -8.273438 3.59375 -7.953125 C 3.050781 -7.640625 2.625 -7.203125 2.3125 -6.640625 C 2.007812 -6.085938 1.859375 -5.445312 1.859375 -4.71875 C 1.859375 -3.988281 2.007812 -3.34375 2.3125 -2.78125 C 2.613281 -2.21875 3.03125 -1.78125 3.5625 -1.46875 C 4.101562 -1.15625 4.726562 -1 5.4375 -1 C 6.019531 -1 6.550781 -1.101562 7.03125 -1.3125 C 7.507812 -1.53125 7.90625 -1.832031 8.21875 -2.21875 C 8.539062 -2.601562 8.765625 -3.050781 8.890625 -3.5625 L 5.109375 -3.5625 Z M 5.109375 -4.6875"/></g></g></g></svg>