<svg version="1.0" preserveAspectRatio="xMidYMid meet" viewBox="63.00000000000001 162.749996094 235.5 70.499998308" zoomAndPan="magnify" xmlns:xlink="http://www.w3.org/1999/xlink" xmlns="http://www.w3.org/2000/svg" style="max-height: 500px" width="235.5" height="70.499998308"><defs><g/><clipPath id="c9fbc793db"><path clip-rule="nonzero" d="M 66.273438 177 L 118 177 L 118 228.957031 L 66.273438 228.957031 Z M 66.273438 177"/></clipPath><clipPath id="7414d6f157"><path clip-rule="nonzero" d="M 96 167.457031 L 127.773438 167.457031 L 127.773438 199 L 96 199 Z M 96 167.457031"/></clipPath><clipPath id="391044bbd1"><path clip-rule="nonzero" d="M 94.90625 177 L 119 177 L 119 202.386719 L 94.90625 202.386719 Z M 94.90625 177"/></clipPath><clipPath id="2442c1351b"><path clip-rule="nonzero" d="M 96 167.136719 L 129.222656 167.136719 L 129.222656 201 L 96 201 Z M 96 167.136719"/></clipPath></defs><g clip-path="url(#c9fbc793db)"><path fill-rule="nonzero" fill-opacity="1" d="M 116.40625 202.160156 L 93.152344 202.160156 L 93.152344 194.195312 C 93.152344 193.527344 92.613281 192.988281 91.945312 192.988281 L 90.414062 192.988281 C 89.394531 192.988281 88.566406 192.15625 88.566406 191.136719 C 88.566406 190.117188 89.394531 189.285156 90.414062 189.285156 L 91.945312 189.285156 C 92.613281 189.285156 93.152344 188.746094 93.152344 188.078125 L 93.152344 178.90625 C 93.152344 178.238281 92.613281 177.699219 91.945312 177.699219 L 82.769531 177.699219 C 82.105469 177.699219 81.5625 178.238281 81.5625 178.90625 L 81.5625 180.433594 C 81.5625 181.457031 80.734375 182.285156 79.714844 182.285156 C 78.691406 182.285156 77.863281 181.457031 77.863281 180.433594 L 77.863281 178.90625 C 77.863281 178.238281 77.324219 177.699219 76.65625 177.699219 L 72.285156 177.699219 C 68.972656 177.699219 66.273438 180.394531 66.273438 183.710938 C 66.273438 185.894531 66.273438 220.84375 66.273438 223.027344 C 66.273438 226.34375 68.972656 229.039062 72.285156 229.039062 L 76.65625 229.039062 C 77.324219 229.039062 77.863281 228.496094 77.863281 227.832031 L 77.863281 226.300781 C 77.863281 225.28125 78.691406 224.453125 79.714844 224.453125 C 80.734375 224.453125 81.5625 225.28125 81.5625 226.300781 L 81.5625 227.832031 C 81.5625 228.496094 82.105469 229.039062 82.769531 229.039062 C 83.789062 229.039062 100.101562 229.039062 101.117188 229.039062 C 101.785156 229.039062 102.324219 228.496094 102.324219 227.832031 L 102.324219 226.300781 C 102.324219 225.28125 103.15625 224.453125 104.175781 224.453125 C 105.195312 224.453125 106.027344 225.28125 106.027344 226.300781 L 106.027344 227.832031 C 106.027344 228.496094 106.566406 229.039062 107.234375 229.039062 L 111.605469 229.039062 C 114.917969 229.039062 117.613281 226.34375 117.613281 223.027344 L 117.613281 203.367188 C 117.613281 202.703125 117.074219 202.160156 116.40625 202.160156 Z M 68.691406 183.710938 C 68.691406 181.726562 70.304688 180.113281 72.285156 180.113281 L 75.449219 180.113281 L 75.449219 180.433594 C 75.449219 182.785156 77.363281 184.699219 79.714844 184.699219 C 82.066406 184.699219 83.980469 182.785156 83.980469 180.433594 L 83.980469 180.113281 L 90.738281 180.113281 L 90.738281 186.871094 L 90.414062 186.871094 C 88.0625 186.871094 86.148438 188.785156 86.148438 191.136719 C 86.148438 193.488281 88.0625 195.402344 90.414062 195.402344 L 90.738281 195.402344 L 90.738281 202.160156 L 83.980469 202.160156 L 83.980469 201.839844 C 83.980469 199.488281 82.066406 197.574219 79.714844 197.574219 C 77.363281 197.574219 75.449219 199.488281 75.449219 201.839844 L 75.449219 202.160156 L 68.691406 202.160156 Z M 79.714844 222.035156 C 77.363281 222.035156 75.449219 223.949219 75.449219 226.300781 L 75.449219 226.625 L 72.285156 226.625 C 70.304688 226.625 68.691406 225.011719 68.691406 223.027344 L 68.691406 204.574219 L 76.65625 204.574219 C 77.324219 204.574219 77.863281 204.035156 77.863281 203.367188 L 77.863281 201.839844 C 77.863281 200.820312 78.691406 199.988281 79.714844 199.988281 C 80.734375 199.988281 81.5625 200.820312 81.5625 201.839844 L 81.5625 203.367188 C 81.5625 204.035156 82.105469 204.574219 82.769531 204.574219 L 90.738281 204.574219 L 90.738281 212.542969 C 90.738281 213.207031 91.277344 213.75 91.945312 213.75 L 93.472656 213.75 C 94.492188 213.75 95.324219 214.578125 95.324219 215.601562 C 95.324219 216.621094 94.492188 217.449219 93.472656 217.449219 L 91.945312 217.449219 C 91.277344 217.449219 90.738281 217.992188 90.738281 218.65625 L 90.738281 226.625 L 83.980469 226.625 L 83.980469 226.300781 C 83.980469 223.949219 82.066406 222.035156 79.714844 222.035156 Z M 115.199219 223.027344 C 115.199219 225.011719 113.585938 226.625 111.605469 226.625 L 108.441406 226.625 L 108.441406 226.300781 C 108.441406 223.949219 106.527344 222.035156 104.175781 222.035156 C 101.824219 222.035156 99.910156 223.949219 99.910156 226.300781 L 99.910156 226.625 L 93.152344 226.625 L 93.152344 219.863281 L 93.472656 219.863281 C 95.824219 219.863281 97.738281 217.953125 97.738281 215.601562 C 97.738281 213.246094 95.824219 211.335938 93.472656 211.335938 L 93.152344 211.335938 L 93.152344 204.574219 L 115.199219 204.574219 Z M 115.199219 223.027344" fill="#6465f1"/></g><g clip-path="url(#7414d6f157)"><path fill-rule="nonzero" fill-opacity="1" d="M 121.84375 167.457031 L 102.1875 167.457031 C 101.519531 167.457031 100.980469 167.996094 100.980469 168.664062 L 100.980469 176.628906 L 100.65625 176.628906 C 98.304688 176.628906 96.390625 178.542969 96.390625 180.894531 C 96.390625 183.246094 98.304688 185.160156 100.65625 185.160156 L 100.980469 185.160156 L 100.980469 193.125 C 100.980469 193.792969 101.519531 194.335938 102.1875 194.335938 L 110.152344 194.335938 L 110.152344 194.65625 C 110.152344 197.007812 112.066406 198.921875 114.417969 198.921875 C 116.769531 198.921875 118.683594 197.007812 118.683594 194.65625 L 118.683594 194.335938 L 126.648438 194.335938 C 127.316406 194.335938 127.855469 193.792969 127.855469 193.125 L 127.855469 173.46875 C 127.855469 170.152344 125.160156 167.457031 121.84375 167.457031 Z M 121.84375 167.457031" fill="#6465f1"/></g><g fill-opacity="1" fill="#333652"><g transform="translate(75.458013, 196.002234)"><g><path d="M 1 -9.984375 L 5.34375 -9.984375 C 6.625 -9.984375 7.613281 -9.679688 8.3125 -9.078125 C 9.019531 -8.472656 9.375 -7.613281 9.375 -6.5 C 9.375 -5.332031 9.019531 -4.425781 8.3125 -3.78125 C 7.613281 -3.132812 6.625 -2.8125 5.34375 -2.8125 L 3.53125 -2.8125 L 3.53125 0 L 1 0 Z M 3.53125 -7.984375 L 3.53125 -4.8125 L 5.21875 -4.8125 C 5.78125 -4.8125 6.210938 -4.945312 6.515625 -5.21875 C 6.816406 -5.5 6.96875 -5.898438 6.96875 -6.421875 C 6.96875 -6.929688 6.816406 -7.316406 6.515625 -7.578125 C 6.210938 -7.847656 5.78125 -7.984375 5.21875 -7.984375 Z M 3.53125 -7.984375"/></g></g></g><g fill-opacity="1" fill="#9e57f6"><g transform="translate(75.809576, 218.149087)"><g><path d="M 4.734375 -9.90625 C 6.203125 -9.90625 7.488281 -9.539062 8.59375 -8.8125 L 7.65625 -6.859375 C 7.144531 -7.160156 6.59375 -7.40625 6 -7.59375 C 5.414062 -7.789062 4.925781 -7.890625 4.53125 -7.890625 C 3.8125 -7.890625 3.453125 -7.648438 3.453125 -7.171875 C 3.453125 -6.867188 3.628906 -6.625 3.984375 -6.4375 C 4.335938 -6.25 4.769531 -6.085938 5.28125 -5.953125 C 5.789062 -5.816406 6.296875 -5.648438 6.796875 -5.453125 C 7.304688 -5.265625 7.738281 -4.957031 8.09375 -4.53125 C 8.445312 -4.101562 8.625 -3.5625 8.625 -2.90625 C 8.625 -1.96875 8.253906 -1.234375 7.515625 -0.703125 C 6.785156 -0.179688 5.851562 0.078125 4.71875 0.078125 C 3.90625 0.078125 3.101562 -0.0546875 2.3125 -0.328125 C 1.519531 -0.609375 0.828125 -0.992188 0.234375 -1.484375 L 1.203125 -3.390625 C 1.691406 -2.960938 2.269531 -2.613281 2.9375 -2.34375 C 3.613281 -2.070312 4.210938 -1.9375 4.734375 -1.9375 C 5.140625 -1.9375 5.453125 -2.003906 5.671875 -2.140625 C 5.898438 -2.285156 6.015625 -2.5 6.015625 -2.78125 C 6.015625 -3.050781 5.882812 -3.273438 5.625 -3.453125 C 5.375 -3.640625 5.054688 -3.773438 4.671875 -3.859375 C 4.285156 -3.953125 3.867188 -4.070312 3.421875 -4.21875 C 2.972656 -4.375 2.554688 -4.539062 2.171875 -4.71875 C 1.796875 -4.894531 1.476562 -5.175781 1.21875 -5.5625 C 0.96875 -5.945312 0.84375 -6.410156 0.84375 -6.953125 C 0.84375 -7.847656 1.195312 -8.5625 1.90625 -9.09375 C 2.625 -9.632812 3.566406 -9.90625 4.734375 -9.90625 Z M 4.734375 -9.90625"/></g></g></g><g fill-opacity="1" fill="#333652"><g transform="translate(100.783204, 217.400083)"><g><path d="M 4.5 -9.390625 C 5.882812 -9.390625 7.101562 -9.046875 8.15625 -8.359375 L 7.265625 -6.515625 C 6.785156 -6.796875 6.265625 -7.023438 5.703125 -7.203125 C 5.148438 -7.390625 4.679688 -7.484375 4.296875 -7.484375 C 3.617188 -7.484375 3.28125 -7.257812 3.28125 -6.8125 C 3.28125 -6.519531 3.445312 -6.285156 3.78125 -6.109375 C 4.113281 -5.929688 4.519531 -5.773438 5 -5.640625 C 5.488281 -5.515625 5.972656 -5.359375 6.453125 -5.171875 C 6.929688 -4.992188 7.335938 -4.703125 7.671875 -4.296875 C 8.015625 -3.890625 8.1875 -3.378906 8.1875 -2.765625 C 8.1875 -1.867188 7.835938 -1.171875 7.140625 -0.671875 C 6.441406 -0.171875 5.550781 0.078125 4.46875 0.078125 C 3.695312 0.078125 2.9375 -0.0507812 2.1875 -0.3125 C 1.4375 -0.582031 0.78125 -0.945312 0.21875 -1.40625 L 1.140625 -3.21875 C 1.609375 -2.8125 2.160156 -2.476562 2.796875 -2.21875 C 3.429688 -1.957031 4 -1.828125 4.5 -1.828125 C 4.875 -1.828125 5.164062 -1.894531 5.375 -2.03125 C 5.59375 -2.164062 5.703125 -2.367188 5.703125 -2.640625 C 5.703125 -2.898438 5.578125 -3.113281 5.328125 -3.28125 C 5.085938 -3.457031 4.785156 -3.585938 4.421875 -3.671875 C 4.066406 -3.753906 3.675781 -3.863281 3.25 -4 C 2.820312 -4.144531 2.425781 -4.300781 2.0625 -4.46875 C 1.707031 -4.632812 1.40625 -4.898438 1.15625 -5.265625 C 0.914062 -5.640625 0.796875 -6.082031 0.796875 -6.59375 C 0.796875 -7.4375 1.132812 -8.113281 1.8125 -8.625 C 2.488281 -9.132812 3.382812 -9.390625 4.5 -9.390625 Z M 4.5 -9.390625"/></g></g></g><g clip-path="url(#391044bbd1)"><path fill-rule="nonzero" fill-opacity="1" d="M 117.105469 203.398438 L 92.804688 203.398438 L 92.804688 195.074219 C 92.804688 194.378906 92.242188 193.8125 91.542969 193.8125 L 89.945312 193.8125 C 88.878906 193.8125 88.011719 192.945312 88.011719 191.878906 C 88.011719 190.816406 88.878906 189.945312 89.945312 189.945312 L 91.542969 189.945312 C 92.242188 189.945312 92.804688 189.382812 92.804688 188.683594 L 92.804688 179.101562 C 92.804688 178.402344 92.242188 177.839844 91.542969 177.839844 L 81.960938 177.839844 C 81.261719 177.839844 80.699219 178.402344 80.699219 179.101562 L 80.699219 180.699219 C 80.699219 181.761719 79.828125 182.632812 78.765625 182.632812 C 77.699219 182.632812 76.832031 181.761719 76.832031 180.699219 L 76.832031 179.101562 C 76.832031 178.402344 76.265625 177.839844 75.570312 177.839844 L 71.003906 177.839844 C 67.539062 177.839844 64.722656 180.65625 64.722656 184.121094 C 64.722656 186.402344 64.722656 222.921875 64.722656 225.203125 C 64.722656 228.667969 67.539062 231.484375 71.003906 231.484375 L 75.570312 231.484375 C 76.265625 231.484375 76.832031 230.917969 76.832031 230.222656 L 76.832031 228.625 C 76.832031 227.558594 77.699219 226.691406 78.765625 226.691406 C 79.828125 226.691406 80.699219 227.558594 80.699219 228.625 L 80.699219 230.222656 C 80.699219 230.917969 81.261719 231.484375 81.960938 231.484375 C 83.023438 231.484375 100.066406 231.484375 101.128906 231.484375 C 101.828125 231.484375 102.390625 230.917969 102.390625 230.222656 L 102.390625 228.625 C 102.390625 227.558594 103.257812 226.691406 104.324219 226.691406 C 105.390625 226.691406 106.257812 227.558594 106.257812 228.625 L 106.257812 230.222656 C 106.257812 230.917969 106.824219 231.484375 107.519531 231.484375 L 112.085938 231.484375 C 115.550781 231.484375 118.367188 228.667969 118.367188 225.203125 L 118.367188 204.660156 C 118.367188 203.964844 117.800781 203.398438 117.105469 203.398438 Z M 67.246094 184.121094 C 67.246094 182.046875 68.929688 180.363281 71.003906 180.363281 L 74.308594 180.363281 L 74.308594 180.699219 C 74.308594 183.15625 76.304688 185.15625 78.765625 185.15625 C 81.222656 185.15625 83.222656 183.15625 83.222656 180.699219 L 83.222656 180.363281 L 90.28125 180.363281 L 90.28125 187.425781 L 89.945312 187.425781 C 87.488281 187.425781 85.488281 189.421875 85.488281 191.878906 C 85.488281 194.339844 87.488281 196.335938 89.945312 196.335938 L 90.28125 196.335938 L 90.28125 203.398438 L 83.222656 203.398438 L 83.222656 203.0625 C 83.222656 200.605469 81.222656 198.605469 78.765625 198.605469 C 76.304688 198.605469 74.308594 200.605469 74.308594 203.0625 L 74.308594 203.398438 L 67.246094 203.398438 Z M 78.765625 224.167969 C 76.304688 224.167969 74.308594 226.167969 74.308594 228.625 L 74.308594 228.960938 L 71.003906 228.960938 C 68.929688 228.960938 67.246094 227.273438 67.246094 225.203125 L 67.246094 205.921875 L 75.570312 205.921875 C 76.265625 205.921875 76.832031 205.359375 76.832031 204.660156 L 76.832031 203.0625 C 76.832031 201.996094 77.699219 201.128906 78.765625 201.128906 C 79.828125 201.128906 80.699219 201.996094 80.699219 203.0625 L 80.699219 204.660156 C 80.699219 205.359375 81.261719 205.921875 81.960938 205.921875 L 90.28125 205.921875 L 90.28125 214.246094 C 90.28125 214.941406 90.847656 215.507812 91.542969 215.507812 L 93.140625 215.507812 C 94.207031 215.507812 95.074219 216.375 95.074219 217.441406 C 95.074219 218.507812 94.207031 219.375 93.140625 219.375 L 91.542969 219.375 C 90.847656 219.375 90.28125 219.941406 90.28125 220.636719 L 90.28125 228.960938 L 83.222656 228.960938 L 83.222656 228.625 C 83.222656 226.167969 81.222656 224.167969 78.765625 224.167969 Z M 115.84375 225.203125 C 115.84375 227.273438 114.160156 228.960938 112.085938 228.960938 L 108.78125 228.960938 L 108.78125 228.625 C 108.78125 226.167969 106.78125 224.167969 104.324219 224.167969 C 101.867188 224.167969 99.867188 226.167969 99.867188 228.625 L 99.867188 228.960938 L 92.804688 228.960938 L 92.804688 221.898438 L 93.140625 221.898438 C 95.601562 221.898438 97.597656 219.898438 97.597656 217.441406 C 97.597656 214.984375 95.601562 212.984375 93.140625 212.984375 L 92.804688 212.984375 L 92.804688 205.921875 L 115.84375 205.921875 Z M 115.84375 225.203125" fill="#333652"/></g><g clip-path="url(#2442c1351b)"><path fill-rule="nonzero" fill-opacity="1" d="M 122.789062 167.136719 L 102.246094 167.136719 C 101.550781 167.136719 100.984375 167.703125 100.984375 168.398438 L 100.984375 176.722656 L 100.648438 176.722656 C 98.191406 176.722656 96.191406 178.722656 96.191406 181.179688 C 96.191406 183.636719 98.191406 185.636719 100.648438 185.636719 L 100.984375 185.636719 L 100.984375 193.960938 C 100.984375 194.65625 101.550781 195.222656 102.246094 195.222656 L 110.570312 195.222656 L 110.570312 195.558594 C 110.570312 198.015625 112.570312 200.015625 115.027344 200.015625 C 117.484375 200.015625 119.484375 198.015625 119.484375 195.558594 L 119.484375 195.222656 L 127.808594 195.222656 C 128.503906 195.222656 129.070312 194.65625 129.070312 193.960938 L 129.070312 173.417969 C 129.070312 169.953125 126.25 167.136719 122.789062 167.136719 Z M 122.789062 167.136719" fill="#333652"/></g><g fill-opacity="1" fill="#e9eaec"><g transform="translate(108.32153, 186.008133)"><g><path d="M 9.234375 -2.6875 L 3.25 -2.6875 L 2.109375 0 L 0.015625 0 L 5.265625 -11.890625 L 7.3125 -11.890625 L 12.515625 0 L 10.375 0 Z M 8.46875 -4.46875 L 6.234375 -9.75 L 3.984375 -4.46875 Z M 8.46875 -4.46875"/></g></g></g><g fill-opacity="1" fill="#ff00ff"><g transform="translate(129.411603, 209.054165)"><g><path d="M 1.28125 -12.78125 L 6.84375 -12.78125 C 8.476562 -12.78125 9.742188 -12.390625 10.640625 -11.609375 C 11.535156 -10.835938 11.984375 -9.742188 11.984375 -8.328125 C 11.984375 -6.828125 11.535156 -5.660156 10.640625 -4.828125 C 9.742188 -4.003906 8.476562 -3.59375 6.84375 -3.59375 L 4.53125 -3.59375 L 4.53125 0 L 1.28125 0 Z M 4.53125 -10.21875 L 4.53125 -6.15625 L 6.671875 -6.15625 C 7.390625 -6.15625 7.941406 -6.328125 8.328125 -6.671875 C 8.722656 -7.023438 8.921875 -7.539062 8.921875 -8.21875 C 8.921875 -8.875 8.722656 -9.367188 8.328125 -9.703125 C 7.941406 -10.046875 7.390625 -10.21875 6.671875 -10.21875 Z M 4.53125 -10.21875"/></g></g></g><g fill-opacity="1" fill="#ff00ff"><g transform="translate(141.819001, 209.054165)"><g><path d="M 9.765625 -2.359375 L 4.171875 -2.359375 L 3.25 0 L -0.09375 0 L 5.421875 -12.78125 L 8.765625 -12.78125 L 14.140625 0 L 10.671875 0 Z M 8.8125 -4.8125 L 6.984375 -9.546875 L 5.125 -4.8125 Z M 8.8125 -4.8125"/></g></g></g><g fill-opacity="1" fill="#ff00ff"><g transform="translate(155.868556, 209.054165)"><g><path d="M 6.1875 -12.921875 C 8.09375 -12.921875 9.769531 -12.445312 11.21875 -11.5 L 10 -8.953125 C 9.332031 -9.347656 8.613281 -9.671875 7.84375 -9.921875 C 7.082031 -10.171875 6.4375 -10.296875 5.90625 -10.296875 C 4.96875 -10.296875 4.5 -9.984375 4.5 -9.359375 C 4.5 -8.960938 4.726562 -8.640625 5.1875 -8.390625 C 5.65625 -8.148438 6.222656 -7.941406 6.890625 -7.765625 C 7.554688 -7.585938 8.21875 -7.375 8.875 -7.125 C 9.539062 -6.875 10.101562 -6.46875 10.5625 -5.90625 C 11.03125 -5.351562 11.265625 -4.648438 11.265625 -3.796875 C 11.265625 -2.566406 10.78125 -1.609375 9.8125 -0.921875 C 8.851562 -0.234375 7.632812 0.109375 6.15625 0.109375 C 5.09375 0.109375 4.039062 -0.0703125 3 -0.4375 C 1.96875 -0.800781 1.070312 -1.300781 0.3125 -1.9375 L 1.5625 -4.4375 C 2.207031 -3.875 2.96875 -3.410156 3.84375 -3.046875 C 4.726562 -2.691406 5.507812 -2.515625 6.1875 -2.515625 C 6.707031 -2.515625 7.113281 -2.609375 7.40625 -2.796875 C 7.695312 -2.984375 7.84375 -3.257812 7.84375 -3.625 C 7.84375 -3.976562 7.675781 -4.273438 7.34375 -4.515625 C 7.007812 -4.753906 6.59375 -4.929688 6.09375 -5.046875 C 5.59375 -5.160156 5.050781 -5.3125 4.46875 -5.5 C 3.882812 -5.695312 3.34375 -5.910156 2.84375 -6.140625 C 2.34375 -6.378906 1.925781 -6.75 1.59375 -7.25 C 1.257812 -7.757812 1.09375 -8.363281 1.09375 -9.0625 C 1.09375 -10.238281 1.554688 -11.175781 2.484375 -11.875 C 3.421875 -12.570312 4.65625 -12.921875 6.1875 -12.921875 Z M 6.1875 -12.921875"/></g></g></g><g fill-opacity="1" fill="#ff00ff"><g transform="translate(167.619097, 209.054165)"><g><path d="M 6.1875 -12.921875 C 8.09375 -12.921875 9.769531 -12.445312 11.21875 -11.5 L 10 -8.953125 C 9.332031 -9.347656 8.613281 -9.671875 7.84375 -9.921875 C 7.082031 -10.171875 6.4375 -10.296875 5.90625 -10.296875 C 4.96875 -10.296875 4.5 -9.984375 4.5 -9.359375 C 4.5 -8.960938 4.726562 -8.640625 5.1875 -8.390625 C 5.65625 -8.148438 6.222656 -7.941406 6.890625 -7.765625 C 7.554688 -7.585938 8.21875 -7.375 8.875 -7.125 C 9.539062 -6.875 10.101562 -6.46875 10.5625 -5.90625 C 11.03125 -5.351562 11.265625 -4.648438 11.265625 -3.796875 C 11.265625 -2.566406 10.78125 -1.609375 9.8125 -0.921875 C 8.851562 -0.234375 7.632812 0.109375 6.15625 0.109375 C 5.09375 0.109375 4.039062 -0.0703125 3 -0.4375 C 1.96875 -0.800781 1.070312 -1.300781 0.3125 -1.9375 L 1.5625 -4.4375 C 2.207031 -3.875 2.96875 -3.410156 3.84375 -3.046875 C 4.726562 -2.691406 5.507812 -2.515625 6.1875 -2.515625 C 6.707031 -2.515625 7.113281 -2.609375 7.40625 -2.796875 C 7.695312 -2.984375 7.84375 -3.257812 7.84375 -3.625 C 7.84375 -3.976562 7.675781 -4.273438 7.34375 -4.515625 C 7.007812 -4.753906 6.59375 -4.929688 6.09375 -5.046875 C 5.59375 -5.160156 5.050781 -5.3125 4.46875 -5.5 C 3.882812 -5.695312 3.34375 -5.910156 2.84375 -6.140625 C 2.34375 -6.378906 1.925781 -6.75 1.59375 -7.25 C 1.257812 -7.757812 1.09375 -8.363281 1.09375 -9.0625 C 1.09375 -10.238281 1.554688 -11.175781 2.484375 -11.875 C 3.421875 -12.570312 4.65625 -12.921875 6.1875 -12.921875 Z M 6.1875 -12.921875"/></g></g></g><g fill-opacity="1" fill="#ff00ff"><g transform="translate(179.369638, 209.054165)"><g><path d="M 13.75 -0.40625 L 14.890625 1.609375 C 14.398438 2.046875 13.820312 2.390625 13.15625 2.640625 C 12.488281 2.890625 11.832031 3.015625 11.1875 3.015625 C 10.3125 3.015625 9.515625 2.757812 8.796875 2.25 C 8.078125 1.75 7.503906 1.046875 7.078125 0.140625 C 5.171875 0.0859375 3.585938 -0.554688 2.328125 -1.796875 C 1.066406 -3.046875 0.4375 -4.582031 0.4375 -6.40625 C 0.4375 -8.269531 1.09375 -9.816406 2.40625 -11.046875 C 3.71875 -12.273438 5.363281 -12.890625 7.34375 -12.890625 C 9.320312 -12.890625 10.96875 -12.269531 12.28125 -11.03125 C 13.59375 -9.800781 14.25 -8.257812 14.25 -6.40625 C 14.25 -5.007812 13.863281 -3.757812 13.09375 -2.65625 C 12.320312 -1.5625 11.289062 -0.78125 10 -0.3125 C 10.457031 0.269531 10.972656 0.5625 11.546875 0.5625 C 12.171875 0.5625 12.90625 0.238281 13.75 -0.40625 Z M 4.8125 -9.078125 C 4.113281 -8.359375 3.765625 -7.460938 3.765625 -6.390625 C 3.765625 -5.316406 4.117188 -4.410156 4.828125 -3.671875 C 5.535156 -2.941406 6.378906 -2.578125 7.359375 -2.578125 C 8.347656 -2.578125 9.1875 -2.941406 9.875 -3.671875 C 10.5625 -4.410156 10.90625 -5.316406 10.90625 -6.390625 C 10.90625 -7.460938 10.5625 -8.359375 9.875 -9.078125 C 9.1875 -9.804688 8.351562 -10.171875 7.375 -10.171875 C 6.375 -10.171875 5.519531 -9.804688 4.8125 -9.078125 Z M 4.8125 -9.078125"/></g></g></g><g fill-opacity="1" fill="#ff00ff"><g transform="translate(194.149041, 209.054165)"><g><path d="M 12.78125 -12.78125 L 12.78125 -5.359375 C 12.78125 -3.671875 12.253906 -2.332031 11.203125 -1.34375 C 10.160156 -0.351562 8.742188 0.140625 6.953125 0.140625 C 5.148438 0.140625 3.71875 -0.351562 2.65625 -1.34375 C 1.59375 -2.332031 1.0625 -3.671875 1.0625 -5.359375 L 1.0625 -12.78125 L 4.3125 -12.78125 L 4.3125 -5.359375 C 4.3125 -4.515625 4.554688 -3.835938 5.046875 -3.328125 C 5.535156 -2.828125 6.175781 -2.578125 6.96875 -2.578125 C 7.75 -2.578125 8.375 -2.820312 8.84375 -3.3125 C 9.3125 -3.8125 9.546875 -4.492188 9.546875 -5.359375 L 9.546875 -12.78125 Z M 12.78125 -12.78125"/></g></g></g><g fill-opacity="1" fill="#ff00ff"><g transform="translate(207.979637, 209.054165)"><g><path d="M 11.28125 -10.21875 L 4.53125 -10.21875 L 4.53125 -7.6875 L 10.625 -7.6875 L 10.625 -5.125 L 4.53125 -5.125 L 4.53125 -2.5625 L 11.484375 -2.5625 L 11.484375 0 L 1.28125 0 L 1.28125 -12.78125 L 11.28125 -12.78125 Z M 11.28125 -10.21875"/></g></g></g><g fill-opacity="1" fill="#ff00ff"><g transform="translate(220.27756, 209.054165)"><g><path d="M 11.28125 -10.21875 L 4.53125 -10.21875 L 4.53125 -7.6875 L 10.625 -7.6875 L 10.625 -5.125 L 4.53125 -5.125 L 4.53125 -2.5625 L 11.484375 -2.5625 L 11.484375 0 L 1.28125 0 L 1.28125 -12.78125 L 11.28125 -12.78125 Z M 11.28125 -10.21875"/></g></g></g><g fill-opacity="1" fill="#ff00ff"><g transform="translate(232.575484, 209.054165)"><g><path d="M 13.0625 0 L 10.203125 0 L 4.328125 -7.859375 L 4.328125 0 L 1.28125 0 L 1.28125 -12.78125 L 4.140625 -12.78125 L 10.03125 -4.890625 L 10.03125 -12.78125 L 13.0625 -12.78125 Z M 13.0625 0"/></g></g></g><g fill-opacity="1" fill="#ff00ff"><g transform="translate(246.916978, 209.054165)"><g><path d="M 1.109375 -2.484375 C 1.390625 -2.765625 1.753906 -2.90625 2.203125 -2.90625 C 2.660156 -2.90625 3.03125 -2.765625 3.3125 -2.484375 C 3.59375 -2.203125 3.734375 -1.835938 3.734375 -1.390625 C 3.734375 -0.941406 3.59375 -0.570312 3.3125 -0.28125 C 3.03125 0 2.660156 0.140625 2.203125 0.140625 C 1.753906 0.140625 1.390625 0 1.109375 -0.28125 C 0.828125 -0.570312 0.6875 -0.941406 0.6875 -1.390625 C 0.6875 -1.835938 0.828125 -2.203125 1.109375 -2.484375 Z M 1.109375 -2.484375"/></g></g></g><g fill-opacity="1" fill="#ff00ff"><g transform="translate(251.350797, 209.054165)"><g><path d="M 7.265625 -12.890625 C 8.210938 -12.890625 9.144531 -12.691406 10.0625 -12.296875 C 10.976562 -11.910156 11.757812 -11.390625 12.40625 -10.734375 L 10.53125 -8.5 C 10.113281 -9.007812 9.613281 -9.414062 9.03125 -9.71875 C 8.457031 -10.019531 7.882812 -10.171875 7.3125 -10.171875 C 6.300781 -10.171875 5.457031 -9.8125 4.78125 -9.09375 C 4.101562 -8.382812 3.765625 -7.503906 3.765625 -6.453125 C 3.765625 -5.390625 4.101562 -4.5 4.78125 -3.78125 C 5.457031 -3.0625 6.300781 -2.703125 7.3125 -2.703125 C 7.851562 -2.703125 8.410156 -2.832031 8.984375 -3.09375 C 9.566406 -3.363281 10.082031 -3.734375 10.53125 -4.203125 L 12.421875 -2.1875 C 11.734375 -1.476562 10.914062 -0.910156 9.96875 -0.484375 C 9.03125 -0.0664062 8.09375 0.140625 7.15625 0.140625 C 5.226562 0.140625 3.625 -0.484375 2.34375 -1.734375 C 1.070312 -2.984375 0.4375 -4.546875 0.4375 -6.421875 C 0.4375 -8.265625 1.085938 -9.800781 2.390625 -11.03125 C 3.691406 -12.269531 5.316406 -12.890625 7.265625 -12.890625 Z M 7.265625 -12.890625"/></g></g></g><g fill-opacity="1" fill="#ff00ff"><g transform="translate(263.977154, 209.054165)"><g><path d="M 7.34375 -12.890625 C 9.320312 -12.890625 10.96875 -12.269531 12.28125 -11.03125 C 13.59375 -9.800781 14.25 -8.257812 14.25 -6.40625 C 14.25 -4.539062 13.585938 -2.984375 12.265625 -1.734375 C 10.953125 -0.484375 9.304688 0.140625 7.328125 0.140625 C 5.359375 0.140625 3.71875 -0.476562 2.40625 -1.71875 C 1.09375 -2.96875 0.4375 -4.53125 0.4375 -6.40625 C 0.4375 -8.269531 1.09375 -9.816406 2.40625 -11.046875 C 3.71875 -12.273438 5.363281 -12.890625 7.34375 -12.890625 Z M 7.375 -10.171875 C 6.375 -10.171875 5.519531 -9.804688 4.8125 -9.078125 C 4.113281 -8.359375 3.765625 -7.460938 3.765625 -6.390625 C 3.765625 -5.316406 4.117188 -4.410156 4.828125 -3.671875 C 5.535156 -2.941406 6.378906 -2.578125 7.359375 -2.578125 C 8.347656 -2.578125 9.1875 -2.941406 9.875 -3.671875 C 10.5625 -4.410156 10.90625 -5.316406 10.90625 -6.390625 C 10.90625 -7.460938 10.5625 -8.359375 9.875 -9.078125 C 9.1875 -9.804688 8.351562 -10.171875 7.375 -10.171875 Z M 7.375 -10.171875"/></g></g></g><g fill-opacity="1" fill="#ff00ff"><g transform="translate(278.665325, 209.054165)"><g><path d="M 15.3125 0 L 12.453125 0 L 12.421875 -8.296875 L 9.359375 -1.28125 L 7.25 -1.28125 L 4.171875 -8.296875 L 4.171875 0 L 1.28125 0 L 1.28125 -12.796875 L 4.84375 -12.796875 L 8.296875 -5.1875 L 11.765625 -12.796875 L 15.3125 -12.796875 Z M 15.3125 0"/></g></g></g><g fill-opacity="1" fill="#00ffff"><g transform="translate(128.72714, 209.054165)"><g><path d="M 1.28125 -12.78125 L 6.84375 -12.78125 C 8.476562 -12.78125 9.742188 -12.390625 10.640625 -11.609375 C 11.535156 -10.835938 11.984375 -9.742188 11.984375 -8.328125 C 11.984375 -6.828125 11.535156 -5.660156 10.640625 -4.828125 C 9.742188 -4.003906 8.476562 -3.59375 6.84375 -3.59375 L 4.53125 -3.59375 L 4.53125 0 L 1.28125 0 Z M 4.53125 -10.21875 L 4.53125 -6.15625 L 6.671875 -6.15625 C 7.390625 -6.15625 7.941406 -6.328125 8.328125 -6.671875 C 8.722656 -7.023438 8.921875 -7.539062 8.921875 -8.21875 C 8.921875 -8.875 8.722656 -9.367188 8.328125 -9.703125 C 7.941406 -10.046875 7.390625 -10.21875 6.671875 -10.21875 Z M 4.53125 -10.21875"/></g></g></g><g fill-opacity="1" fill="#00ffff"><g transform="translate(141.134537, 209.054165)"><g><path d="M 9.765625 -2.359375 L 4.171875 -2.359375 L 3.25 0 L -0.09375 0 L 5.421875 -12.78125 L 8.765625 -12.78125 L 14.140625 0 L 10.671875 0 Z M 8.8125 -4.8125 L 6.984375 -9.546875 L 5.125 -4.8125 Z M 8.8125 -4.8125"/></g></g></g><g fill-opacity="1" fill="#00ffff"><g transform="translate(155.184093, 209.054165)"><g><path d="M 6.1875 -12.921875 C 8.09375 -12.921875 9.769531 -12.445312 11.21875 -11.5 L 10 -8.953125 C 9.332031 -9.347656 8.613281 -9.671875 7.84375 -9.921875 C 7.082031 -10.171875 6.4375 -10.296875 5.90625 -10.296875 C 4.96875 -10.296875 4.5 -9.984375 4.5 -9.359375 C 4.5 -8.960938 4.726562 -8.640625 5.1875 -8.390625 C 5.65625 -8.148438 6.222656 -7.941406 6.890625 -7.765625 C 7.554688 -7.585938 8.21875 -7.375 8.875 -7.125 C 9.539062 -6.875 10.101562 -6.46875 10.5625 -5.90625 C 11.03125 -5.351562 11.265625 -4.648438 11.265625 -3.796875 C 11.265625 -2.566406 10.78125 -1.609375 9.8125 -0.921875 C 8.851562 -0.234375 7.632812 0.109375 6.15625 0.109375 C 5.09375 0.109375 4.039062 -0.0703125 3 -0.4375 C 1.96875 -0.800781 1.070312 -1.300781 0.3125 -1.9375 L 1.5625 -4.4375 C 2.207031 -3.875 2.96875 -3.410156 3.84375 -3.046875 C 4.726562 -2.691406 5.507812 -2.515625 6.1875 -2.515625 C 6.707031 -2.515625 7.113281 -2.609375 7.40625 -2.796875 C 7.695312 -2.984375 7.84375 -3.257812 7.84375 -3.625 C 7.84375 -3.976562 7.675781 -4.273438 7.34375 -4.515625 C 7.007812 -4.753906 6.59375 -4.929688 6.09375 -5.046875 C 5.59375 -5.160156 5.050781 -5.3125 4.46875 -5.5 C 3.882812 -5.695312 3.34375 -5.910156 2.84375 -6.140625 C 2.34375 -6.378906 1.925781 -6.75 1.59375 -7.25 C 1.257812 -7.757812 1.09375 -8.363281 1.09375 -9.0625 C 1.09375 -10.238281 1.554688 -11.175781 2.484375 -11.875 C 3.421875 -12.570312 4.65625 -12.921875 6.1875 -12.921875 Z M 6.1875 -12.921875"/></g></g></g><g fill-opacity="1" fill="#00ffff"><g transform="translate(166.934634, 209.054165)"><g><path d="M 6.1875 -12.921875 C 8.09375 -12.921875 9.769531 -12.445312 11.21875 -11.5 L 10 -8.953125 C 9.332031 -9.347656 8.613281 -9.671875 7.84375 -9.921875 C 7.082031 -10.171875 6.4375 -10.296875 5.90625 -10.296875 C 4.96875 -10.296875 4.5 -9.984375 4.5 -9.359375 C 4.5 -8.960938 4.726562 -8.640625 5.1875 -8.390625 C 5.65625 -8.148438 6.222656 -7.941406 6.890625 -7.765625 C 7.554688 -7.585938 8.21875 -7.375 8.875 -7.125 C 9.539062 -6.875 10.101562 -6.46875 10.5625 -5.90625 C 11.03125 -5.351562 11.265625 -4.648438 11.265625 -3.796875 C 11.265625 -2.566406 10.78125 -1.609375 9.8125 -0.921875 C 8.851562 -0.234375 7.632812 0.109375 6.15625 0.109375 C 5.09375 0.109375 4.039062 -0.0703125 3 -0.4375 C 1.96875 -0.800781 1.070312 -1.300781 0.3125 -1.9375 L 1.5625 -4.4375 C 2.207031 -3.875 2.96875 -3.410156 3.84375 -3.046875 C 4.726562 -2.691406 5.507812 -2.515625 6.1875 -2.515625 C 6.707031 -2.515625 7.113281 -2.609375 7.40625 -2.796875 C 7.695312 -2.984375 7.84375 -3.257812 7.84375 -3.625 C 7.84375 -3.976562 7.675781 -4.273438 7.34375 -4.515625 C 7.007812 -4.753906 6.59375 -4.929688 6.09375 -5.046875 C 5.59375 -5.160156 5.050781 -5.3125 4.46875 -5.5 C 3.882812 -5.695312 3.34375 -5.910156 2.84375 -6.140625 C 2.34375 -6.378906 1.925781 -6.75 1.59375 -7.25 C 1.257812 -7.757812 1.09375 -8.363281 1.09375 -9.0625 C 1.09375 -10.238281 1.554688 -11.175781 2.484375 -11.875 C 3.421875 -12.570312 4.65625 -12.921875 6.1875 -12.921875 Z M 6.1875 -12.921875"/></g></g></g><g fill-opacity="1" fill="#00ffff"><g transform="translate(178.685175, 209.054165)"><g><path d="M 13.75 -0.40625 L 14.890625 1.609375 C 14.398438 2.046875 13.820312 2.390625 13.15625 2.640625 C 12.488281 2.890625 11.832031 3.015625 11.1875 3.015625 C 10.3125 3.015625 9.515625 2.757812 8.796875 2.25 C 8.078125 1.75 7.503906 1.046875 7.078125 0.140625 C 5.171875 0.0859375 3.585938 -0.554688 2.328125 -1.796875 C 1.066406 -3.046875 0.4375 -4.582031 0.4375 -6.40625 C 0.4375 -8.269531 1.09375 -9.816406 2.40625 -11.046875 C 3.71875 -12.273438 5.363281 -12.890625 7.34375 -12.890625 C 9.320312 -12.890625 10.96875 -12.269531 12.28125 -11.03125 C 13.59375 -9.800781 14.25 -8.257812 14.25 -6.40625 C 14.25 -5.007812 13.863281 -3.757812 13.09375 -2.65625 C 12.320312 -1.5625 11.289062 -0.78125 10 -0.3125 C 10.457031 0.269531 10.972656 0.5625 11.546875 0.5625 C 12.171875 0.5625 12.90625 0.238281 13.75 -0.40625 Z M 4.8125 -9.078125 C 4.113281 -8.359375 3.765625 -7.460938 3.765625 -6.390625 C 3.765625 -5.316406 4.117188 -4.410156 4.828125 -3.671875 C 5.535156 -2.941406 6.378906 -2.578125 7.359375 -2.578125 C 8.347656 -2.578125 9.1875 -2.941406 9.875 -3.671875 C 10.5625 -4.410156 10.90625 -5.316406 10.90625 -6.390625 C 10.90625 -7.460938 10.5625 -8.359375 9.875 -9.078125 C 9.1875 -9.804688 8.351562 -10.171875 7.375 -10.171875 C 6.375 -10.171875 5.519531 -9.804688 4.8125 -9.078125 Z M 4.8125 -9.078125"/></g></g></g><g fill-opacity="1" fill="#00ffff"><g transform="translate(193.464578, 209.054165)"><g><path d="M 12.78125 -12.78125 L 12.78125 -5.359375 C 12.78125 -3.671875 12.253906 -2.332031 11.203125 -1.34375 C 10.160156 -0.351562 8.742188 0.140625 6.953125 0.140625 C 5.148438 0.140625 3.71875 -0.351562 2.65625 -1.34375 C 1.59375 -2.332031 1.0625 -3.671875 1.0625 -5.359375 L 1.0625 -12.78125 L 4.3125 -12.78125 L 4.3125 -5.359375 C 4.3125 -4.515625 4.554688 -3.835938 5.046875 -3.328125 C 5.535156 -2.828125 6.175781 -2.578125 6.96875 -2.578125 C 7.75 -2.578125 8.375 -2.820312 8.84375 -3.3125 C 9.3125 -3.8125 9.546875 -4.492188 9.546875 -5.359375 L 9.546875 -12.78125 Z M 12.78125 -12.78125"/></g></g></g><g fill-opacity="1" fill="#00ffff"><g transform="translate(207.295174, 209.054165)"><g><path d="M 11.28125 -10.21875 L 4.53125 -10.21875 L 4.53125 -7.6875 L 10.625 -7.6875 L 10.625 -5.125 L 4.53125 -5.125 L 4.53125 -2.5625 L 11.484375 -2.5625 L 11.484375 0 L 1.28125 0 L 1.28125 -12.78125 L 11.28125 -12.78125 Z M 11.28125 -10.21875"/></g></g></g><g fill-opacity="1" fill="#00ffff"><g transform="translate(219.593097, 209.054165)"><g><path d="M 11.28125 -10.21875 L 4.53125 -10.21875 L 4.53125 -7.6875 L 10.625 -7.6875 L 10.625 -5.125 L 4.53125 -5.125 L 4.53125 -2.5625 L 11.484375 -2.5625 L 11.484375 0 L 1.28125 0 L 1.28125 -12.78125 L 11.28125 -12.78125 Z M 11.28125 -10.21875"/></g></g></g><g fill-opacity="1" fill="#00ffff"><g transform="translate(231.89102, 209.054165)"><g><path d="M 13.0625 0 L 10.203125 0 L 4.328125 -7.859375 L 4.328125 0 L 1.28125 0 L 1.28125 -12.78125 L 4.140625 -12.78125 L 10.03125 -4.890625 L 10.03125 -12.78125 L 13.0625 -12.78125 Z M 13.0625 0"/></g></g></g><g fill-opacity="1" fill="#00ffff"><g transform="translate(246.232515, 209.054165)"><g><path d="M 1.109375 -2.484375 C 1.390625 -2.765625 1.753906 -2.90625 2.203125 -2.90625 C 2.660156 -2.90625 3.03125 -2.765625 3.3125 -2.484375 C 3.59375 -2.203125 3.734375 -1.835938 3.734375 -1.390625 C 3.734375 -0.941406 3.59375 -0.570312 3.3125 -0.28125 C 3.03125 0 2.660156 0.140625 2.203125 0.140625 C 1.753906 0.140625 1.390625 0 1.109375 -0.28125 C 0.828125 -0.570312 0.6875 -0.941406 0.6875 -1.390625 C 0.6875 -1.835938 0.828125 -2.203125 1.109375 -2.484375 Z M 1.109375 -2.484375"/></g></g></g><g fill-opacity="1" fill="#00ffff"><g transform="translate(250.666334, 209.054165)"><g><path d="M 7.265625 -12.890625 C 8.210938 -12.890625 9.144531 -12.691406 10.0625 -12.296875 C 10.976562 -11.910156 11.757812 -11.390625 12.40625 -10.734375 L 10.53125 -8.5 C 10.113281 -9.007812 9.613281 -9.414062 9.03125 -9.71875 C 8.457031 -10.019531 7.882812 -10.171875 7.3125 -10.171875 C 6.300781 -10.171875 5.457031 -9.8125 4.78125 -9.09375 C 4.101562 -8.382812 3.765625 -7.503906 3.765625 -6.453125 C 3.765625 -5.390625 4.101562 -4.5 4.78125 -3.78125 C 5.457031 -3.0625 6.300781 -2.703125 7.3125 -2.703125 C 7.851562 -2.703125 8.410156 -2.832031 8.984375 -3.09375 C 9.566406 -3.363281 10.082031 -3.734375 10.53125 -4.203125 L 12.421875 -2.1875 C 11.734375 -1.476562 10.914062 -0.910156 9.96875 -0.484375 C 9.03125 -0.0664062 8.09375 0.140625 7.15625 0.140625 C 5.226562 0.140625 3.625 -0.484375 2.34375 -1.734375 C 1.070312 -2.984375 0.4375 -4.546875 0.4375 -6.421875 C 0.4375 -8.265625 1.085938 -9.800781 2.390625 -11.03125 C 3.691406 -12.269531 5.316406 -12.890625 7.265625 -12.890625 Z M 7.265625 -12.890625"/></g></g></g><g fill-opacity="1" fill="#00ffff"><g transform="translate(263.292691, 209.054165)"><g><path d="M 7.34375 -12.890625 C 9.320312 -12.890625 10.96875 -12.269531 12.28125 -11.03125 C 13.59375 -9.800781 14.25 -8.257812 14.25 -6.40625 C 14.25 -4.539062 13.585938 -2.984375 12.265625 -1.734375 C 10.953125 -0.484375 9.304688 0.140625 7.328125 0.140625 C 5.359375 0.140625 3.71875 -0.476562 2.40625 -1.71875 C 1.09375 -2.96875 0.4375 -4.53125 0.4375 -6.40625 C 0.4375 -8.269531 1.09375 -9.816406 2.40625 -11.046875 C 3.71875 -12.273438 5.363281 -12.890625 7.34375 -12.890625 Z M 7.375 -10.171875 C 6.375 -10.171875 5.519531 -9.804688 4.8125 -9.078125 C 4.113281 -8.359375 3.765625 -7.460938 3.765625 -6.390625 C 3.765625 -5.316406 4.117188 -4.410156 4.828125 -3.671875 C 5.535156 -2.941406 6.378906 -2.578125 7.359375 -2.578125 C 8.347656 -2.578125 9.1875 -2.941406 9.875 -3.671875 C 10.5625 -4.410156 10.90625 -5.316406 10.90625 -6.390625 C 10.90625 -7.460938 10.5625 -8.359375 9.875 -9.078125 C 9.1875 -9.804688 8.351562 -10.171875 7.375 -10.171875 Z M 7.375 -10.171875"/></g></g></g><g fill-opacity="1" fill="#00ffff"><g transform="translate(277.980861, 209.054165)"><g><path d="M 15.3125 0 L 12.453125 0 L 12.421875 -8.296875 L 9.359375 -1.28125 L 7.25 -1.28125 L 4.171875 -8.296875 L 4.171875 0 L 1.28125 0 L 1.28125 -12.796875 L 4.84375 -12.796875 L 8.296875 -5.1875 L 11.765625 -12.796875 L 15.3125 -12.796875 Z M 15.3125 0"/></g></g></g><g fill-opacity="1" fill="#303465"><g transform="translate(129.06937, 209.054165)"><g><path d="M 1.28125 -12.78125 L 6.84375 -12.78125 C 8.476562 -12.78125 9.742188 -12.390625 10.640625 -11.609375 C 11.535156 -10.835938 11.984375 -9.742188 11.984375 -8.328125 C 11.984375 -6.828125 11.535156 -5.660156 10.640625 -4.828125 C 9.742188 -4.003906 8.476562 -3.59375 6.84375 -3.59375 L 4.53125 -3.59375 L 4.53125 0 L 1.28125 0 Z M 4.53125 -10.21875 L 4.53125 -6.15625 L 6.671875 -6.15625 C 7.390625 -6.15625 7.941406 -6.328125 8.328125 -6.671875 C 8.722656 -7.023438 8.921875 -7.539062 8.921875 -8.21875 C 8.921875 -8.875 8.722656 -9.367188 8.328125 -9.703125 C 7.941406 -10.046875 7.390625 -10.21875 6.671875 -10.21875 Z M 4.53125 -10.21875"/></g></g></g><g fill-opacity="1" fill="#303465"><g transform="translate(141.476768, 209.054165)"><g><path d="M 9.765625 -2.359375 L 4.171875 -2.359375 L 3.25 0 L -0.09375 0 L 5.421875 -12.78125 L 8.765625 -12.78125 L 14.140625 0 L 10.671875 0 Z M 8.8125 -4.8125 L 6.984375 -9.546875 L 5.125 -4.8125 Z M 8.8125 -4.8125"/></g></g></g><g fill-opacity="1" fill="#303465"><g transform="translate(155.526323, 209.054165)"><g><path d="M 6.1875 -12.921875 C 8.09375 -12.921875 9.769531 -12.445312 11.21875 -11.5 L 10 -8.953125 C 9.332031 -9.347656 8.613281 -9.671875 7.84375 -9.921875 C 7.082031 -10.171875 6.4375 -10.296875 5.90625 -10.296875 C 4.96875 -10.296875 4.5 -9.984375 4.5 -9.359375 C 4.5 -8.960938 4.726562 -8.640625 5.1875 -8.390625 C 5.65625 -8.148438 6.222656 -7.941406 6.890625 -7.765625 C 7.554688 -7.585938 8.21875 -7.375 8.875 -7.125 C 9.539062 -6.875 10.101562 -6.46875 10.5625 -5.90625 C 11.03125 -5.351562 11.265625 -4.648438 11.265625 -3.796875 C 11.265625 -2.566406 10.78125 -1.609375 9.8125 -0.921875 C 8.851562 -0.234375 7.632812 0.109375 6.15625 0.109375 C 5.09375 0.109375 4.039062 -0.0703125 3 -0.4375 C 1.96875 -0.800781 1.070312 -1.300781 0.3125 -1.9375 L 1.5625 -4.4375 C 2.207031 -3.875 2.96875 -3.410156 3.84375 -3.046875 C 4.726562 -2.691406 5.507812 -2.515625 6.1875 -2.515625 C 6.707031 -2.515625 7.113281 -2.609375 7.40625 -2.796875 C 7.695312 -2.984375 7.84375 -3.257812 7.84375 -3.625 C 7.84375 -3.976562 7.675781 -4.273438 7.34375 -4.515625 C 7.007812 -4.753906 6.59375 -4.929688 6.09375 -5.046875 C 5.59375 -5.160156 5.050781 -5.3125 4.46875 -5.5 C 3.882812 -5.695312 3.34375 -5.910156 2.84375 -6.140625 C 2.34375 -6.378906 1.925781 -6.75 1.59375 -7.25 C 1.257812 -7.757812 1.09375 -8.363281 1.09375 -9.0625 C 1.09375 -10.238281 1.554688 -11.175781 2.484375 -11.875 C 3.421875 -12.570312 4.65625 -12.921875 6.1875 -12.921875 Z M 6.1875 -12.921875"/></g></g></g><g fill-opacity="1" fill="#303465"><g transform="translate(167.276864, 209.054165)"><g><path d="M 6.1875 -12.921875 C 8.09375 -12.921875 9.769531 -12.445312 11.21875 -11.5 L 10 -8.953125 C 9.332031 -9.347656 8.613281 -9.671875 7.84375 -9.921875 C 7.082031 -10.171875 6.4375 -10.296875 5.90625 -10.296875 C 4.96875 -10.296875 4.5 -9.984375 4.5 -9.359375 C 4.5 -8.960938 4.726562 -8.640625 5.1875 -8.390625 C 5.65625 -8.148438 6.222656 -7.941406 6.890625 -7.765625 C 7.554688 -7.585938 8.21875 -7.375 8.875 -7.125 C 9.539062 -6.875 10.101562 -6.46875 10.5625 -5.90625 C 11.03125 -5.351562 11.265625 -4.648438 11.265625 -3.796875 C 11.265625 -2.566406 10.78125 -1.609375 9.8125 -0.921875 C 8.851562 -0.234375 7.632812 0.109375 6.15625 0.109375 C 5.09375 0.109375 4.039062 -0.0703125 3 -0.4375 C 1.96875 -0.800781 1.070312 -1.300781 0.3125 -1.9375 L 1.5625 -4.4375 C 2.207031 -3.875 2.96875 -3.410156 3.84375 -3.046875 C 4.726562 -2.691406 5.507812 -2.515625 6.1875 -2.515625 C 6.707031 -2.515625 7.113281 -2.609375 7.40625 -2.796875 C 7.695312 -2.984375 7.84375 -3.257812 7.84375 -3.625 C 7.84375 -3.976562 7.675781 -4.273438 7.34375 -4.515625 C 7.007812 -4.753906 6.59375 -4.929688 6.09375 -5.046875 C 5.59375 -5.160156 5.050781 -5.3125 4.46875 -5.5 C 3.882812 -5.695312 3.34375 -5.910156 2.84375 -6.140625 C 2.34375 -6.378906 1.925781 -6.75 1.59375 -7.25 C 1.257812 -7.757812 1.09375 -8.363281 1.09375 -9.0625 C 1.09375 -10.238281 1.554688 -11.175781 2.484375 -11.875 C 3.421875 -12.570312 4.65625 -12.921875 6.1875 -12.921875 Z M 6.1875 -12.921875"/></g></g></g><g fill-opacity="1" fill="#303465"><g transform="translate(179.027405, 209.054165)"><g><path d="M 13.75 -0.40625 L 14.890625 1.609375 C 14.398438 2.046875 13.820312 2.390625 13.15625 2.640625 C 12.488281 2.890625 11.832031 3.015625 11.1875 3.015625 C 10.3125 3.015625 9.515625 2.757812 8.796875 2.25 C 8.078125 1.75 7.503906 1.046875 7.078125 0.140625 C 5.171875 0.0859375 3.585938 -0.554688 2.328125 -1.796875 C 1.066406 -3.046875 0.4375 -4.582031 0.4375 -6.40625 C 0.4375 -8.269531 1.09375 -9.816406 2.40625 -11.046875 C 3.71875 -12.273438 5.363281 -12.890625 7.34375 -12.890625 C 9.320312 -12.890625 10.96875 -12.269531 12.28125 -11.03125 C 13.59375 -9.800781 14.25 -8.257812 14.25 -6.40625 C 14.25 -5.007812 13.863281 -3.757812 13.09375 -2.65625 C 12.320312 -1.5625 11.289062 -0.78125 10 -0.3125 C 10.457031 0.269531 10.972656 0.5625 11.546875 0.5625 C 12.171875 0.5625 12.90625 0.238281 13.75 -0.40625 Z M 4.8125 -9.078125 C 4.113281 -8.359375 3.765625 -7.460938 3.765625 -6.390625 C 3.765625 -5.316406 4.117188 -4.410156 4.828125 -3.671875 C 5.535156 -2.941406 6.378906 -2.578125 7.359375 -2.578125 C 8.347656 -2.578125 9.1875 -2.941406 9.875 -3.671875 C 10.5625 -4.410156 10.90625 -5.316406 10.90625 -6.390625 C 10.90625 -7.460938 10.5625 -8.359375 9.875 -9.078125 C 9.1875 -9.804688 8.351562 -10.171875 7.375 -10.171875 C 6.375 -10.171875 5.519531 -9.804688 4.8125 -9.078125 Z M 4.8125 -9.078125"/></g></g></g><g fill-opacity="1" fill="#303465"><g transform="translate(193.806808, 209.054165)"><g><path d="M 12.78125 -12.78125 L 12.78125 -5.359375 C 12.78125 -3.671875 12.253906 -2.332031 11.203125 -1.34375 C 10.160156 -0.351562 8.742188 0.140625 6.953125 0.140625 C 5.148438 0.140625 3.71875 -0.351562 2.65625 -1.34375 C 1.59375 -2.332031 1.0625 -3.671875 1.0625 -5.359375 L 1.0625 -12.78125 L 4.3125 -12.78125 L 4.3125 -5.359375 C 4.3125 -4.515625 4.554688 -3.835938 5.046875 -3.328125 C 5.535156 -2.828125 6.175781 -2.578125 6.96875 -2.578125 C 7.75 -2.578125 8.375 -2.820312 8.84375 -3.3125 C 9.3125 -3.8125 9.546875 -4.492188 9.546875 -5.359375 L 9.546875 -12.78125 Z M 12.78125 -12.78125"/></g></g></g><g fill-opacity="1" fill="#303465"><g transform="translate(207.637404, 209.054165)"><g><path d="M 11.28125 -10.21875 L 4.53125 -10.21875 L 4.53125 -7.6875 L 10.625 -7.6875 L 10.625 -5.125 L 4.53125 -5.125 L 4.53125 -2.5625 L 11.484375 -2.5625 L 11.484375 0 L 1.28125 0 L 1.28125 -12.78125 L 11.28125 -12.78125 Z M 11.28125 -10.21875"/></g></g></g><g fill-opacity="1" fill="#303465"><g transform="translate(219.935328, 209.054165)"><g><path d="M 11.28125 -10.21875 L 4.53125 -10.21875 L 4.53125 -7.6875 L 10.625 -7.6875 L 10.625 -5.125 L 4.53125 -5.125 L 4.53125 -2.5625 L 11.484375 -2.5625 L 11.484375 0 L 1.28125 0 L 1.28125 -12.78125 L 11.28125 -12.78125 Z M 11.28125 -10.21875"/></g></g></g><g fill-opacity="1" fill="#303465"><g transform="translate(232.233251, 209.054165)"><g><path d="M 13.0625 0 L 10.203125 0 L 4.328125 -7.859375 L 4.328125 0 L 1.28125 0 L 1.28125 -12.78125 L 4.140625 -12.78125 L 10.03125 -4.890625 L 10.03125 -12.78125 L 13.0625 -12.78125 Z M 13.0625 0"/></g></g></g><g fill-opacity="1" fill="#303465"><g transform="translate(246.574745, 209.054165)"><g><path d="M 1.109375 -2.484375 C 1.390625 -2.765625 1.753906 -2.90625 2.203125 -2.90625 C 2.660156 -2.90625 3.03125 -2.765625 3.3125 -2.484375 C 3.59375 -2.203125 3.734375 -1.835938 3.734375 -1.390625 C 3.734375 -0.941406 3.59375 -0.570312 3.3125 -0.28125 C 3.03125 0 2.660156 0.140625 2.203125 0.140625 C 1.753906 0.140625 1.390625 0 1.109375 -0.28125 C 0.828125 -0.570312 0.6875 -0.941406 0.6875 -1.390625 C 0.6875 -1.835938 0.828125 -2.203125 1.109375 -2.484375 Z M 1.109375 -2.484375"/></g></g></g><g fill-opacity="1" fill="#303465"><g transform="translate(251.008564, 209.054165)"><g><path d="M 7.265625 -12.890625 C 8.210938 -12.890625 9.144531 -12.691406 10.0625 -12.296875 C 10.976562 -11.910156 11.757812 -11.390625 12.40625 -10.734375 L 10.53125 -8.5 C 10.113281 -9.007812 9.613281 -9.414062 9.03125 -9.71875 C 8.457031 -10.019531 7.882812 -10.171875 7.3125 -10.171875 C 6.300781 -10.171875 5.457031 -9.8125 4.78125 -9.09375 C 4.101562 -8.382812 3.765625 -7.503906 3.765625 -6.453125 C 3.765625 -5.390625 4.101562 -4.5 4.78125 -3.78125 C 5.457031 -3.0625 6.300781 -2.703125 7.3125 -2.703125 C 7.851562 -2.703125 8.410156 -2.832031 8.984375 -3.09375 C 9.566406 -3.363281 10.082031 -3.734375 10.53125 -4.203125 L 12.421875 -2.1875 C 11.734375 -1.476562 10.914062 -0.910156 9.96875 -0.484375 C 9.03125 -0.0664062 8.09375 0.140625 7.15625 0.140625 C 5.226562 0.140625 3.625 -0.484375 2.34375 -1.734375 C 1.070312 -2.984375 0.4375 -4.546875 0.4375 -6.421875 C 0.4375 -8.265625 1.085938 -9.800781 2.390625 -11.03125 C 3.691406 -12.269531 5.316406 -12.890625 7.265625 -12.890625 Z M 7.265625 -12.890625"/></g></g></g><g fill-opacity="1" fill="#303465"><g transform="translate(263.634921, 209.054165)"><g><path d="M 7.34375 -12.890625 C 9.320312 -12.890625 10.96875 -12.269531 12.28125 -11.03125 C 13.59375 -9.800781 14.25 -8.257812 14.25 -6.40625 C 14.25 -4.539062 13.585938 -2.984375 12.265625 -1.734375 C 10.953125 -0.484375 9.304688 0.140625 7.328125 0.140625 C 5.359375 0.140625 3.71875 -0.476562 2.40625 -1.71875 C 1.09375 -2.96875 0.4375 -4.53125 0.4375 -6.40625 C 0.4375 -8.269531 1.09375 -9.816406 2.40625 -11.046875 C 3.71875 -12.273438 5.363281 -12.890625 7.34375 -12.890625 Z M 7.375 -10.171875 C 6.375 -10.171875 5.519531 -9.804688 4.8125 -9.078125 C 4.113281 -8.359375 3.765625 -7.460938 3.765625 -6.390625 C 3.765625 -5.316406 4.117188 -4.410156 4.828125 -3.671875 C 5.535156 -2.941406 6.378906 -2.578125 7.359375 -2.578125 C 8.347656 -2.578125 9.1875 -2.941406 9.875 -3.671875 C 10.5625 -4.410156 10.90625 -5.316406 10.90625 -6.390625 C 10.90625 -7.460938 10.5625 -8.359375 9.875 -9.078125 C 9.1875 -9.804688 8.351562 -10.171875 7.375 -10.171875 Z M 7.375 -10.171875"/></g></g></g><g fill-opacity="1" fill="#303465"><g transform="translate(278.323092, 209.054165)"><g><path d="M 15.3125 0 L 12.453125 0 L 12.421875 -8.296875 L 9.359375 -1.28125 L 7.25 -1.28125 L 4.171875 -8.296875 L 4.171875 0 L 1.28125 0 L 1.28125 -12.796875 L 4.84375 -12.796875 L 8.296875 -5.1875 L 11.765625 -12.796875 L 15.3125 -12.796875 Z M 15.3125 0"/></g></g></g><g fill-opacity="1" fill="#de4bad"><g transform="translate(134.362978, 223.69692)"><g><path d="M 7.109375 -7.125 L 2.515625 -7.125 L 2.515625 -4.859375 L 6.625 -4.859375 L 6.625 -3.59375 L 2.515625 -3.59375 L 2.515625 -1.265625 L 7.25 -1.265625 L 7.25 0 L 1.109375 0 L 1.109375 -8.40625 L 7.109375 -8.40625 Z M 7.109375 -7.125"/></g></g></g><g fill-opacity="1" fill="#de4bad"><g transform="translate(146.926991, 223.69692)"><g><path d="M 4.984375 -4.375 L 8.046875 0 L 6.359375 0 L 4.09375 -3.171875 L 1.84375 0 L 0.1875 0 L 3.234375 -4.3125 L 0.390625 -8.40625 L 2.046875 -8.40625 L 4.09375 -5.484375 L 6.15625 -8.40625 L 7.8125 -8.40625 Z M 4.984375 -4.375"/></g></g></g><g fill-opacity="1" fill="#de4bad"><g transform="translate(159.923006, 223.69692)"><g><path d="M 6.53125 -1.890625 L 2.296875 -1.890625 L 1.484375 0 L 0.015625 0 L 3.71875 -8.40625 L 5.171875 -8.40625 L 8.84375 0 L 7.328125 0 Z M 5.984375 -3.15625 L 4.40625 -6.890625 L 2.8125 -3.15625 Z M 5.984375 -3.15625"/></g></g></g><g fill-opacity="1" fill="#de4bad"><g transform="translate(173.471028, 223.69692)"><g><path d="M 9.984375 0 L 8.671875 0 L 8.65625 -6.28125 L 6.015625 -0.875 L 5.09375 -0.875 L 2.4375 -6.28125 L 2.4375 0 L 1.109375 0 L 1.109375 -8.40625 L 2.78125 -8.40625 L 5.5625 -2.8125 L 8.3125 -8.40625 L 9.984375 -8.40625 Z M 9.984375 0"/></g></g></g><g fill-opacity="1" fill="#de4bad"><g transform="translate(189.263052, 223.69692)"><g/></g></g><g fill-opacity="1" fill="#de4bad"><g transform="translate(197.051054, 223.69692)"><g><path d="M 6.84375 -7.125 L 4.171875 -7.125 L 4.171875 0 L 2.765625 0 L 2.765625 -7.125 L 0.109375 -7.125 L 0.109375 -8.40625 L 6.84375 -8.40625 Z M 6.84375 -7.125"/></g></g></g><g fill-opacity="1" fill="#de4bad"><g transform="translate(208.691068, 223.69692)"><g><path d="M 6.4375 0 L 4.890625 -2.546875 C 4.816406 -2.535156 4.691406 -2.53125 4.515625 -2.53125 L 2.515625 -2.53125 L 2.515625 0 L 1.109375 0 L 1.109375 -8.40625 L 4.515625 -8.40625 C 5.585938 -8.40625 6.414062 -8.15625 7 -7.65625 C 7.59375 -7.15625 7.890625 -6.445312 7.890625 -5.53125 C 7.890625 -4.863281 7.738281 -4.296875 7.4375 -3.828125 C 7.144531 -3.359375 6.71875 -3.019531 6.15625 -2.8125 L 8.046875 0 Z M 2.515625 -3.796875 L 4.515625 -3.796875 C 5.867188 -3.796875 6.546875 -4.363281 6.546875 -5.5 C 6.546875 -6.582031 5.867188 -7.125 4.515625 -7.125 L 2.515625 -7.125 Z M 2.515625 -3.796875"/></g></g></g><g fill-opacity="1" fill="#de4bad"><g transform="translate(222.059082, 223.69692)"><g><path d="M 6.53125 -1.890625 L 2.296875 -1.890625 L 1.484375 0 L 0.015625 0 L 3.71875 -8.40625 L 5.171875 -8.40625 L 8.84375 0 L 7.328125 0 Z M 5.984375 -3.15625 L 4.40625 -6.890625 L 2.8125 -3.15625 Z M 5.984375 -3.15625"/></g></g></g><g fill-opacity="1" fill="#de4bad"><g transform="translate(235.607101, 223.69692)"><g><path d="M 2.515625 0 L 1.109375 0 L 1.109375 -8.40625 L 2.515625 -8.40625 Z M 2.515625 0"/></g></g></g><g fill-opacity="1" fill="#de4bad"><g transform="translate(243.92311, 223.69692)"><g><path d="M 8.390625 0 L 7 0 L 2.515625 -6.03125 L 2.515625 0 L 1.109375 0 L 1.109375 -8.40625 L 2.5 -8.40625 L 7 -2.359375 L 7 -8.40625 L 8.390625 -8.40625 Z M 8.390625 0"/></g></g></g><g fill-opacity="1" fill="#de4bad"><g transform="translate(258.119127, 223.69692)"><g><path d="M 2.515625 0 L 1.109375 0 L 1.109375 -8.40625 L 2.515625 -8.40625 Z M 2.515625 0"/></g></g></g><g fill-opacity="1" fill="#de4bad"><g transform="translate(266.435136, 223.69692)"><g><path d="M 8.390625 0 L 7 0 L 2.515625 -6.03125 L 2.515625 0 L 1.109375 0 L 1.109375 -8.40625 L 2.5 -8.40625 L 7 -2.359375 L 7 -8.40625 L 8.390625 -8.40625 Z M 8.390625 0"/></g></g></g><g fill-opacity="1" fill="#de4bad"><g transform="translate(280.631153, 223.69692)"><g><path d="M 6.859375 -4.125 L 8.09375 -4.125 L 8.09375 -1.03125 C 7.65625 -0.707031 7.140625 -0.441406 6.546875 -0.234375 C 5.960938 -0.0351562 5.390625 0.0625 4.828125 0.0625 C 3.585938 0.0625 2.539062 -0.347656 1.6875 -1.171875 C 0.832031 -1.992188 0.40625 -3.003906 0.40625 -4.203125 C 0.40625 -5.398438 0.835938 -6.40625 1.703125 -7.21875 C 2.566406 -8.03125 3.632812 -8.4375 4.90625 -8.4375 C 5.5 -8.4375 6.082031 -8.328125 6.65625 -8.109375 C 7.226562 -7.898438 7.722656 -7.617188 8.140625 -7.265625 L 7.328125 -6.21875 C 6.640625 -6.851562 5.832031 -7.171875 4.90625 -7.171875 C 4.050781 -7.171875 3.328125 -6.882812 2.734375 -6.3125 C 2.140625 -5.738281 1.84375 -5.035156 1.84375 -4.203125 C 1.84375 -3.359375 2.140625 -2.648438 2.734375 -2.078125 C 3.335938 -1.503906 4.066406 -1.21875 4.921875 -1.21875 C 5.566406 -1.21875 6.210938 -1.40625 6.859375 -1.78125 Z M 6.859375 -4.125"/></g></g></g></svg>